<?xml version="1.0" standalone="no"?>
<!DOCTYPE svg PUBLIC "-//W3C//DTD SVG 20010904//EN"
 "http://www.w3.org/TR/2001/REC-SVG-20010904/DTD/svg10.dtd">
<svg version="1.0" xmlns="http://www.w3.org/2000/svg"
 width="300.000000pt" height="151.000000pt" viewBox="0 0 300.000000 151.000000"
 preserveAspectRatio="xMidYMid meet">
<metadata>
Created by potrace 1.10, written by Peter Selinger 2001-2011
</metadata>
<g transform="translate(0.000000,151.000000) scale(0.100000,-0.100000)"
fill="#000000" stroke="none">
<path d="M1635 1491 l-30 -7 70 -74 c39 -41 72 -77 75 -80 3 -3 113 -120 245
-260 131 -140 275 -293 319 -340 45 -47 211 -223 370 -393 158 -169 290 -307
292 -307 2 0 4 331 4 735 l0 735 -155 0 -155 0 -2 -362 -3 -361 -225 239
c-123 131 -254 271 -291 309 -37 39 -88 94 -114 123 l-47 52 -162 -1 c-88 -1
-174 -4 -191 -8z"/>
<path d="M20 743 l0 -746 906 5 c498 3 907 8 911 11 3 3 -37 58 -88 121 l-92
116 -651 2 -651 3 -3 163 -2 162 516 0 c298 0 514 4 512 9 -1 5 -48 65 -103
134 l-100 126 -410 3 -410 3 -3 187 -2 188 255 2 255 3 -102 128 -101 127
-319 0 -318 0 0 -747z"/>
<path d="M850 1484 c0 -3 35 -45 78 -93 525 -592 1209 -1359 1218 -1368 13
-13 34 42 98 255 l25 84 -87 96 c-84 95 -261 287 -392 427 -37 39 -104 111
-151 160 -46 50 -145 155 -220 235 -75 80 -149 160 -164 178 l-27 32 -189 0
c-104 0 -189 -3 -189 -6z"/>
</g>
</svg>
